<?xml version="1.0" encoding="UTF-8" standalone="no"?>
<!DOCTYPE svg PUBLIC "-//W3C//DTD SVG 1.1//EN" "http://www.w3.org/Graphics/SVG/1.1/DTD/svg11.dtd">
<svg version="1.1" xmlns="http://www.w3.org/2000/svg" xmlns:xlink="http://www.w3.org/1999/xlink" preserveAspectRatio="xMidYMid meet" viewBox="0 0 640 640" width="640" height="640"><defs><path d="M597.33 0C620.9 0 640 19.1 640 42.67C640 162.13 640 477.87 640 597.33C640 620.9 620.9 640 597.33 640C477.87 640 162.13 640 42.67 640C19.1 640 0 620.9 0 597.33C0 477.87 0 162.13 0 42.67C0 19.1 19.1 0 42.67 0C162.13 0 477.87 0 597.33 0Z" id="iJYo6gFy2"></path><path d="M598.76 0.74C621.98 0.74 640.81 19.57 640.81 42.8C640.81 52.53 640.81 39.68 640.81 49.42C640.81 72.64 621.98 91.47 598.76 91.47C479.17 91.47 162.45 91.47 42.87 91.47C19.64 91.47 0.81 72.64 0.81 49.42C0.81 39.68 0.81 52.53 0.81 42.8C0.81 19.57 19.64 0.74 42.87 0.74C162.45 0.74 479.17 0.74 598.76 0.74Z" id="aaGgiO0FC"></path><path d="M0.81 38.02L640.81 38.02L640.81 90.98L0.81 90.98L0.81 38.02Z" id="fh2OgqkQP"></path><path d="M86.14 43.41C86.14 55.18 76.58 64.74 64.81 64.74C53.04 64.74 43.48 55.18 43.48 43.41C43.48 31.64 53.04 22.08 64.81 22.08C76.58 22.08 86.14 31.64 86.14 43.41Z" id="bjSDiNjSS"></path><path d="M162.94 43.41C162.94 55.18 153.38 64.74 141.61 64.74C129.84 64.74 120.28 55.18 120.28 43.41C120.28 31.64 129.84 22.08 141.61 22.08C153.38 22.08 162.94 31.64 162.94 43.41Z" id="ehgtjHvc8"></path><path d="M237.61 43.41C237.61 55.18 228.05 64.74 216.28 64.74C204.5 64.74 194.94 55.18 194.94 43.41C194.94 31.64 204.5 22.08 216.28 22.08C228.05 22.08 237.61 31.64 237.61 43.41Z" id="aritAmIkG"></path></defs><g><g><g><use xlink:href="#iJYo6gFy2" opacity="1" fill="#f2f2f2" fill-opacity="1"></use></g><g><use xlink:href="#aaGgiO0FC" opacity="1" fill="#e8e6e8" fill-opacity="1"></use></g><g><use xlink:href="#fh2OgqkQP" opacity="1" fill="#e8e6e8" fill-opacity="1"></use></g><g><use xlink:href="#bjSDiNjSS" opacity="1" fill="#fc645f" fill-opacity="1"></use></g><g><use xlink:href="#ehgtjHvc8" opacity="1" fill="#fdbd41" fill-opacity="1"></use></g><g><use xlink:href="#aritAmIkG" opacity="1" fill="#35cc4b" fill-opacity="1"></use></g></g></g></svg>